<?xml version="1.0" encoding="UTF-8" standalone="no"?>
<!DOCTYPE svg PUBLIC "-//W3C//DTD SVG 1.1//EN"
 "http://www.w3.org/Graphics/SVG/1.1/DTD/svg11.dtd">
<!-- Generated by graphviz version 12.2.1 (20241206.2353)
 -->
<!-- Title: pipeline Pages: 1 -->
<svg width="341pt" height="380pt"
 viewBox="0.00 0.00 341.13 379.57" xmlns="http://www.w3.org/2000/svg" xmlns:xlink="http://www.w3.org/1999/xlink">
<g id="graph0" class="graph" transform="scale(1 1) rotate(0) translate(4 375.57)">
<title>pipeline</title>
<polygon fill="white" stroke="none" points="-4,4 -4,-375.57 337.13,-375.57 337.13,4 -4,4"/>
<g id="clust1" class="cluster">
<title>cluster_pipeline</title>
<polygon fill="none" stroke="#666666" stroke-dasharray="5,2" points="134.18,-124.16 134.18,-256.41 274.18,-256.41 274.18,-124.16 134.18,-124.16"/>
<text text-anchor="middle" x="174.06" y="-243.86" font-family="Helvetica Neue" font-size="9.00" fill="#666666">pipeline module</text>
</g>
<!-- md5cache -->
<g id="node1" class="node">
<title>md5cache</title>
<ellipse fill="#e8e8e8" stroke="black" cx="45.18" cy="-348.49" rx="45.18" ry="23.08"/>
<text text-anchor="middle" x="45.18" y="-350.99" font-family="Helvetica Neue" font-size="10.00">md5&#45;cache</text>
<text text-anchor="middle" x="45.18" y="-338.99" font-family="Helvetica Neue" font-size="10.00">files</text>
</g>
<!-- reader -->
<g id="node2" class="node">
<title>reader</title>
<polygon fill="#cce5ff" stroke="black" points="195.88,-366.49 112.48,-366.49 112.48,-330.49 195.88,-330.49 195.88,-366.49"/>
<text text-anchor="middle" x="154.18" y="-344.99" font-family="Helvetica Neue" font-size="10.00">Reader / Parser</text>
</g>
<!-- md5cache&#45;&gt;reader -->
<g id="edge2" class="edge">
<title>md5cache&#45;&gt;reader</title>
<path fill="none" stroke="black" d="M90.74,-348.49C94.07,-348.49 97.4,-348.49 100.73,-348.49"/>
<polygon fill="black" stroke="black" points="100.54,-351.99 110.54,-348.49 100.54,-344.99 100.54,-351.99"/>
</g>
<!-- facts -->
<g id="node4" class="node">
<title>facts</title>
<ellipse fill="#e8e8e8" stroke="black" cx="162.18" cy="-282.41" rx="42.2" ry="18"/>
<text text-anchor="middle" x="162.18" y="-278.91" font-family="Helvetica Neue" font-size="10.00">Prolog facts</text>
</g>
<!-- reader&#45;&gt;facts -->
<g id="edge3" class="edge">
<title>reader&#45;&gt;facts</title>
<path fill="none" stroke="black" d="M156.33,-330.32C157.05,-324.57 157.87,-318.01 158.66,-311.64"/>
<polygon fill="black" stroke="black" points="162.08,-312.49 159.85,-302.13 155.13,-311.62 162.08,-312.49"/>
</g>
<!-- user -->
<g id="node3" class="node">
<title>user</title>
<polygon fill="#fff3cd" stroke="black" points="272.18,-354.05 245.18,-366.49 218.18,-354.05 218.21,-333.93 272.16,-333.93 272.18,-354.05"/>
<text text-anchor="middle" x="245.18" y="-344.99" font-family="Helvetica Neue" font-size="10.00">User</text>
</g>
<!-- resolver -->
<g id="node5" class="node">
<title>resolver</title>
<polygon fill="#cce5ff" stroke="black" points="266.13,-229.16 142.23,-229.16 142.23,-193.16 266.13,-193.16 266.13,-229.16"/>
<text text-anchor="middle" x="204.18" y="-213.66" font-family="Helvetica Neue" font-size="10.00">Resolver</text>
<text text-anchor="middle" x="204.18" y="-201.66" font-family="Helvetica Neue" font-size="10.00">(prover + resolving rules)</text>
</g>
<!-- user&#45;&gt;resolver -->
<g id="edge5" class="edge">
<title>user&#45;&gt;resolver</title>
<path fill="none" stroke="black" d="M240.95,-333.52C234.3,-311.56 221.26,-268.53 212.64,-240.07"/>
<polygon fill="black" stroke="black" points="216.04,-239.22 209.79,-230.67 209.34,-241.25 216.04,-239.22"/>
</g>
<!-- facts&#45;&gt;resolver -->
<g id="edge4" class="edge">
<title>facts&#45;&gt;resolver</title>
<path fill="none" stroke="black" stroke-dasharray="5,2" d="M172.35,-264.65C177.03,-256.94 182.69,-247.6 187.94,-238.95"/>
<polygon fill="black" stroke="black" points="190.84,-240.91 193.03,-230.54 184.86,-237.28 190.84,-240.91"/>
</g>
<!-- orderer -->
<g id="node6" class="node">
<title>orderer</title>
<polygon fill="#cce5ff" stroke="black" points="264.26,-168.16 144.11,-168.16 144.11,-132.16 264.26,-132.16 264.26,-168.16"/>
<text text-anchor="middle" x="204.18" y="-152.66" font-family="Helvetica Neue" font-size="10.00">Orderer</text>
<text text-anchor="middle" x="204.18" y="-140.66" font-family="Helvetica Neue" font-size="10.00">(prover + ordering rules)</text>
</g>
<!-- resolver&#45;&gt;orderer -->
<g id="edge1" class="edge">
<title>resolver&#45;&gt;orderer</title>
<path fill="none" stroke="black" d="M204.18,-192.78C204.18,-188.73 204.18,-184.32 204.18,-179.93"/>
<polygon fill="black" stroke="black" points="207.68,-180.14 204.18,-170.14 200.68,-180.14 207.68,-180.14"/>
</g>
<!-- printer -->
<g id="node7" class="node">
<title>printer</title>
<polygon fill="#cce5ff" stroke="black" points="231.18,-107.16 177.18,-107.16 177.18,-71.16 231.18,-71.16 231.18,-107.16"/>
<text text-anchor="middle" x="204.18" y="-85.66" font-family="Helvetica Neue" font-size="10.00">Printer</text>
</g>
<!-- resolver&#45;&gt;printer -->
<g id="edge7" class="edge">
<title>resolver&#45;&gt;printer</title>
<path fill="none" stroke="black" stroke-dasharray="5,2" d="M249.57,-192.69C259.76,-186.53 269.3,-178.49 275.18,-168.16 284.87,-151.17 285.61,-140.71 275.18,-124.16 273.03,-120.74 257.75,-113.24 241.91,-106.15"/>
<polygon fill="black" stroke="black" points="243.51,-103.03 232.94,-102.21 240.69,-109.44 243.51,-103.03"/>
</g>
<!-- orderer&#45;&gt;printer -->
<g id="edge6" class="edge">
<title>orderer&#45;&gt;printer</title>
<path fill="none" stroke="black" d="M204.18,-131.78C204.18,-127.73 204.18,-123.32 204.18,-118.93"/>
<polygon fill="black" stroke="black" points="207.68,-119.14 204.18,-109.14 200.68,-119.14 207.68,-119.14"/>
</g>
<!-- builder -->
<g id="node8" class="node">
<title>builder</title>
<polygon fill="#cce5ff" stroke="black" points="313.18,-107.16 259.18,-107.16 259.18,-71.16 313.18,-71.16 313.18,-107.16"/>
<text text-anchor="middle" x="286.18" y="-85.66" font-family="Helvetica Neue" font-size="10.00">Builder</text>
</g>
<!-- printer&#45;&gt;builder -->
<g id="edge9" class="edge">
<title>printer&#45;&gt;builder</title>
<path fill="none" stroke="black" stroke-dasharray="5,2" d="M231.41,-89.16C236.83,-89.16 242.25,-89.16 247.67,-89.16"/>
<polygon fill="black" stroke="black" points="247.28,-92.66 257.28,-89.16 247.28,-85.66 247.28,-92.66"/>
</g>
<!-- output -->
<g id="node9" class="node">
<title>output</title>
<ellipse fill="#e8e8e8" stroke="black" cx="193.18" cy="-23.08" rx="35.64" ry="23.08"/>
<text text-anchor="middle" x="193.18" y="-25.58" font-family="Helvetica Neue" font-size="10.00">Terminal</text>
<text text-anchor="middle" x="193.18" y="-13.58" font-family="Helvetica Neue" font-size="10.00">output</text>
</g>
<!-- printer&#45;&gt;output -->
<g id="edge8" class="edge">
<title>printer&#45;&gt;output</title>
<path fill="none" stroke="black" d="M201.24,-70.99C200.53,-66.85 199.74,-62.29 198.95,-57.69"/>
<polygon fill="black" stroke="black" points="202.41,-57.13 197.27,-47.86 195.51,-58.31 202.41,-57.13"/>
</g>
<!-- builds -->
<g id="node10" class="node">
<title>builds</title>
<ellipse fill="#e8e8e8" stroke="black" cx="292.18" cy="-23.08" rx="40.94" ry="23.08"/>
<text text-anchor="middle" x="292.18" y="-25.58" font-family="Helvetica Neue" font-size="10.00">Installed</text>
<text text-anchor="middle" x="292.18" y="-13.58" font-family="Helvetica Neue" font-size="10.00">packages</text>
</g>
<!-- builder&#45;&gt;builds -->
<g id="edge10" class="edge">
<title>builder&#45;&gt;builds</title>
<path fill="none" stroke="black" d="M287.79,-70.99C288.18,-66.85 288.61,-62.29 289.04,-57.69"/>
<polygon fill="black" stroke="black" points="292.51,-58.16 289.96,-47.88 285.54,-57.51 292.51,-58.16"/>
</g>
</g>
</svg>
