<?xml version="1.0" encoding="UTF-8" standalone="no"?>
<!DOCTYPE svg PUBLIC "-//W3C//DTD SVG 1.1//EN"
 "http://www.w3.org/Graphics/SVG/1.1/DTD/svg11.dtd">
<!-- Generated by graphviz version 12.2.1 (20241206.2353)
 -->
<!-- Title: ordering_cycle Pages: 1 -->
<svg width="974pt" height="143pt"
 viewBox="0.00 0.00 973.75 143.00" xmlns="http://www.w3.org/2000/svg" xmlns:xlink="http://www.w3.org/1999/xlink">
<g id="graph0" class="graph" transform="scale(1 1) rotate(0) translate(4 139)">
<title>ordering_cycle</title>
<polygon fill="white" stroke="none" points="-4,4 -4,-139 969.75,-139 969.75,4 -4,4"/>
<g id="clust1" class="cluster">
<title>cluster_steps</title>
<polygon fill="#e6f0ff" stroke="#4a86c8" points="8,-8 8,-127 499.25,-127 499.25,-8 8,-8"/>
<text text-anchor="middle" x="93.25" y="-112.55" font-family="Helvetica,sans-Serif" font-size="11.00">Plan steps &#160;(scheduled/1 proofs)</text>
</g>
<g id="clust2" class="cluster">
<title>cluster_world</title>
<polygon fill="#e6ffe6" stroke="#4a8c4a" points="629.5,-32 629.5,-104 751.25,-104 751.25,-32 629.5,-32"/>
<text text-anchor="middle" x="690.38" y="-89.55" font-family="Helvetica,sans-Serif" font-size="11.00">Installed world &#160;(VDB)</text>
</g>
<!-- python_inst -->
<g id="node1" class="node">
<title>python_inst</title>
<polygon fill="#cce5ff" stroke="black" points="98,-79 16,-79 16,-35 98,-35 98,-79"/>
<text text-anchor="middle" x="57" y="-64.55" font-family="Helvetica,sans-Serif" font-size="11.00">install</text>
<text text-anchor="middle" x="57" y="-52.55" font-family="Helvetica,sans-Serif" font-size="11.00">python&#45;3.14.7</text>
<text text-anchor="middle" x="57" y="-40.55" font-family="Helvetica,sans-Serif" font-size="11.00">[tk]</text>
</g>
<!-- tk_inst -->
<g id="node2" class="node">
<title>tk_inst</title>
<polygon fill="#cce5ff" stroke="black" points="290.38,-52 236.38,-52 236.38,-16 290.38,-16 290.38,-52"/>
<text text-anchor="middle" x="263.38" y="-35.55" font-family="Helvetica,sans-Serif" font-size="11.00">install</text>
<text text-anchor="middle" x="263.38" y="-23.55" font-family="Helvetica,sans-Serif" font-size="11.00">tk</text>
</g>
<!-- python_inst&#45;&gt;tk_inst -->
<g id="edge1" class="edge">
<title>python_inst&#45;&gt;tk_inst</title>
<path fill="none" stroke="black" d="M98.38,-52.46C135.06,-48.33 188.77,-42.28 224.62,-38.25"/>
<polygon fill="black" stroke="black" points="224.99,-41.73 234.53,-37.13 224.2,-34.77 224.99,-41.73"/>
<text text-anchor="middle" x="159.12" y="-51.95" font-family="Helvetica,sans-Serif" font-size="10.00">requires (DEPEND)</text>
</g>
<!-- fontconfig_inst -->
<g id="node3" class="node">
<title>fontconfig_inst</title>
<polygon fill="#cce5ff" stroke="black" points="491.25,-76 428.75,-76 428.75,-40 491.25,-40 491.25,-76"/>
<text text-anchor="middle" x="460" y="-59.55" font-family="Helvetica,sans-Serif" font-size="11.00">install</text>
<text text-anchor="middle" x="460" y="-47.55" font-family="Helvetica,sans-Serif" font-size="11.00">fontconfig</text>
</g>
<!-- tk_inst&#45;&gt;fontconfig_inst -->
<g id="edge2" class="edge">
<title>tk_inst&#45;&gt;fontconfig_inst</title>
<path fill="none" stroke="black" d="M290.62,-37.24C323.06,-41.24 378.67,-48.09 417.06,-52.83"/>
<polygon fill="black" stroke="black" points="416.52,-56.29 426.87,-54.04 417.37,-49.34 416.52,-56.29"/>
<text text-anchor="middle" x="367.62" y="-53.31" font-family="Helvetica,sans-Serif" font-size="10.00">requires (DEPEND)</text>
</g>
<!-- fontconfig_inst&#45;&gt;python_inst -->
<g id="edge3" class="edge">
<title>fontconfig_inst&#45;&gt;python_inst</title>
<path fill="none" stroke="#c84a4a" stroke-dasharray="5,2" d="M428.49,-64.57C422.63,-65.58 416.52,-66.47 410.75,-67 280.3,-79.06 246.65,-74.6 116,-65 113.96,-64.85 111.88,-64.67 109.79,-64.48"/>
<polygon fill="#c84a4a" stroke="#c84a4a" points="110.32,-61.01 100,-63.42 109.56,-67.97 110.32,-61.01"/>
<text text-anchor="middle" x="263.38" y="-76.05" font-family="Helvetica,sans-Serif" font-size="10.00" fill="#c84a4a">requires (DEPEND)</text>
</g>
<!-- python_vdb -->
<g id="node4" class="node">
<title>python_vdb</title>
<polygon fill="#ccf2cc" stroke="black" points="730.88,-76 648.88,-76 648.88,-40 730.88,-40 730.88,-76"/>
<text text-anchor="middle" x="689.88" y="-59.55" font-family="Helvetica,sans-Serif" font-size="11.00">python&#45;3.14.6</text>
<text text-anchor="middle" x="689.88" y="-47.55" font-family="Helvetica,sans-Serif" font-size="11.00">(installed)</text>
</g>
<!-- fontconfig_inst&#45;&gt;python_vdb -->
<g id="edge4" class="edge">
<title>fontconfig_inst&#45;&gt;python_vdb</title>
<path fill="none" stroke="#4a8c4a" stroke-width="2" d="M491.73,-58C528.58,-58 590.97,-58 635.7,-58"/>
<polygon fill="#4a8c4a" stroke="#4a8c4a" stroke-width="2" points="635.65,-61.5 645.65,-58 635.65,-54.5 635.65,-61.5"/>
<text text-anchor="middle" x="564.38" y="-59.75" font-family="Helvetica,sans-Serif" font-size="10.00" fill="#4a8c4a">available: world/2 citation</text>
</g>
<!-- note -->
<g id="node5" class="node">
<title>note</title>
<text text-anchor="start" x="788.25" y="-65.05" font-family="Helvetica,sans-Serif" font-style="italic" font-size="11.00">fontconfig is buildable now because</text>
<text text-anchor="start" x="793.12" y="-54.05" font-family="Helvetica,sans-Serif" font-style="italic" font-size="11.00">python&#45;3.14.6 is already installed;</text>
<text text-anchor="start" x="793.88" y="-43.05" font-family="Helvetica,sans-Serif" font-style="italic" font-size="11.00">the new python builds afterwards</text>
</g>
<!-- python_vdb&#45;&gt;note -->
</g>
</svg>
