<?xml version="1.0" encoding="UTF-8" standalone="no"?>
<!DOCTYPE svg PUBLIC "-//W3C//DTD SVG 1.1//EN"
 "http://www.w3.org/Graphics/SVG/1.1/DTD/svg11.dtd">
<!-- Generated by graphviz version 12.2.1 (20241206.2353)
 -->
<!-- Title: rules_assumptions_bpmn Pages: 1 -->
<svg width="1204pt" height="1752pt"
 viewBox="0.00 0.00 1204.00 1752.27" xmlns="http://www.w3.org/2000/svg" xmlns:xlink="http://www.w3.org/1999/xlink">
<g id="graph0" class="graph" transform="scale(1 1) rotate(0) translate(4 1748.27)">
<title>rules_assumptions_bpmn</title>
<polygon fill="white" stroke="none" points="-4,4 -4,-1748.27 1200,-1748.27 1200,4 -4,4"/>
<text text-anchor="middle" x="598" y="-1728.87" font-family="Times,serif" font-size="12.00">portage&#45;ng: grouped dependency resolution + assumption diagnosis (BPMN&#45;style)</text>
<g id="clust1" class="cluster">
<title>cluster_rules</title>
<polygon fill="none" stroke="#888888" points="8,-551.75 8,-1714.02 550,-1714.02 550,-551.75 8,-551.75"/>
<text text-anchor="middle" x="279" y="-1698.62" font-family="Times,serif" font-size="12.00">rules.pl : rule(grouped_package_dependency(no,C,N,PackageDeps):Action?{Context}, Conditions)</text>
</g>
<g id="clust2" class="cluster">
<title>cluster_explain</title>
<polygon fill="none" stroke="#888888" points="558,-8 558,-1046.51 1188,-1046.51 1188,-8 558,-8"/>
<text text-anchor="middle" x="873" y="-1031.11" font-family="Times,serif" font-size="12.00">explanation.pl : assumption_reason_for_grouped_dep/6 (only on fallback)</text>
</g>
<!-- r_start -->
<g id="node1" class="node">
<title>r_start</title>
<ellipse fill="none" stroke="black" cx="110" cy="-1662.77" rx="21.01" ry="21.01"/>
<text text-anchor="middle" x="110" y="-1658.89" font-family="Helvetica,sans-Serif" font-size="10.00">start</text>
</g>
<!-- r_self_run -->
<g id="node2" class="node">
<title>r_self_run</title>
<polygon fill="none" stroke="black" points="110,-1604.76 24.25,-1574.26 110,-1543.76 195.75,-1574.26 110,-1604.76"/>
<text text-anchor="middle" x="110" y="-1576.01" font-family="Helvetica,sans-Serif" font-size="10.00">Action == run</text>
<text text-anchor="middle" x="110" y="-1564.76" font-family="Helvetica,sans-Serif" font-size="10.00">AND self(C,N)?</text>
</g>
<!-- r_start&#45;&gt;r_self_run -->
<g id="edge1" class="edge">
<title>r_start&#45;&gt;r_self_run</title>
<path fill="none" stroke="black" d="M110,-1641.27C110,-1632.92 110,-1622.99 110,-1613.4"/>
<polygon fill="black" stroke="black" points="112.45,-1613.63 110,-1606.63 107.55,-1613.63 112.45,-1613.63"/>
</g>
<!-- r_ok1 -->
<g id="node3" class="node">
<title>r_ok1</title>
<polygon fill="none" stroke="black" points="161.75,-1485.51 30.25,-1485.51 30.25,-1449.51 161.75,-1449.51 161.75,-1485.51"/>
<text text-anchor="middle" x="96" y="-1469.26" font-family="Helvetica,sans-Serif" font-size="10.00">Conditions = []</text>
<text text-anchor="middle" x="96" y="-1458.01" font-family="Helvetica,sans-Serif" font-size="10.00">(runtime self&#45;dep satisfied)</text>
</g>
<!-- r_self_run&#45;&gt;r_ok1 -->
<g id="edge2" class="edge">
<title>r_self_run&#45;&gt;r_ok1</title>
<path fill="none" stroke="black" d="M106.17,-1544.64C104.06,-1528.79 101.45,-1509.27 99.4,-1493.96"/>
<polygon fill="black" stroke="black" points="101.89,-1494.05 98.53,-1487.44 97.03,-1494.7 101.89,-1494.05"/>
<text text-anchor="middle" x="110.54" y="-1517.21" font-family="Helvetica,sans-Serif" font-size="9.00">yes</text>
</g>
<!-- r_installed -->
<g id="node4" class="node">
<title>r_installed</title>
<polygon fill="none" stroke="black" points="335,-1498.01 179.5,-1467.51 335,-1437.01 490.5,-1467.51 335,-1498.01"/>
<text text-anchor="middle" x="335" y="-1469.26" font-family="Helvetica,sans-Serif" font-size="10.00">Already installed?</text>
<text text-anchor="middle" x="335" y="-1458.01" font-family="Helvetica,sans-Serif" font-size="10.00">OR (emptytree AND core_pkg)?</text>
</g>
<!-- r_self_run&#45;&gt;r_installed -->
<g id="edge3" class="edge">
<title>r_self_run&#45;&gt;r_installed</title>
<path fill="none" stroke="black" d="M146.4,-1556.31C183.17,-1539.2 240.34,-1512.58 282.11,-1493.13"/>
<polygon fill="black" stroke="black" points="283.04,-1495.4 288.35,-1490.23 280.97,-1490.96 283.04,-1495.4"/>
<text text-anchor="middle" x="234.5" y="-1517.21" font-family="Helvetica,sans-Serif" font-size="9.00">no</text>
</g>
<!-- r_ok2 -->
<g id="node5" class="node">
<title>r_ok2</title>
<polygon fill="none" stroke="black" points="246.62,-1391.26 153.38,-1391.26 153.38,-1355.26 246.62,-1355.26 246.62,-1391.26"/>
<text text-anchor="middle" x="200" y="-1375.01" font-family="Helvetica,sans-Serif" font-size="10.00">Conditions = []</text>
<text text-anchor="middle" x="200" y="-1363.76" font-family="Helvetica,sans-Serif" font-size="10.00">(already satisfied)</text>
</g>
<!-- r_installed&#45;&gt;r_ok2 -->
<g id="edge4" class="edge">
<title>r_installed&#45;&gt;r_ok2</title>
<path fill="none" stroke="black" d="M300.93,-1443.23C279.88,-1428.85 253.02,-1410.49 232.3,-1396.34"/>
<polygon fill="black" stroke="black" points="233.94,-1394.49 226.78,-1392.56 231.18,-1398.53 233.94,-1394.49"/>
<text text-anchor="middle" x="270.58" y="-1410.46" font-family="Helvetica,sans-Serif" font-size="9.00">yes</text>
</g>
<!-- r_slotreq -->
<g id="node6" class="node">
<title>r_slotreq</title>
<polygon fill="none" stroke="black" points="439.12,-1391.26 264.88,-1391.26 264.88,-1355.26 439.12,-1355.26 439.12,-1391.26"/>
<text text-anchor="middle" x="352" y="-1369.39" font-family="Helvetica,sans-Serif" font-size="10.00">SlotReq = merge_slot_restriction(...)</text>
</g>
<!-- r_installed&#45;&gt;r_slotreq -->
<g id="edge5" class="edge">
<title>r_installed&#45;&gt;r_slotreq</title>
<path fill="none" stroke="black" d="M340.33,-1437.58C342.57,-1425.41 345.16,-1411.39 347.32,-1399.64"/>
<polygon fill="black" stroke="black" points="349.68,-1400.36 348.54,-1393.03 344.86,-1399.47 349.68,-1400.36"/>
<text text-anchor="middle" x="350.77" y="-1410.46" font-family="Helvetica,sans-Serif" font-size="9.00">no</text>
</g>
<!-- r_self_hosting -->
<g id="node7" class="node">
<title>r_self_hosting</title>
<polygon fill="none" stroke="black" points="352,-1318.26 169.5,-1287.76 352,-1257.26 534.5,-1287.76 352,-1318.26"/>
<text text-anchor="middle" x="352" y="-1289.51" font-family="Helvetica,sans-Serif" font-size="10.00">Self&#45;hosting?</text>
<text text-anchor="middle" x="352" y="-1278.26" font-family="Helvetica,sans-Serif" font-size="10.00">(Action != run AND self matches C/N)</text>
</g>
<!-- r_slotreq&#45;&gt;r_self_hosting -->
<g id="edge6" class="edge">
<title>r_slotreq&#45;&gt;r_self_hosting</title>
<path fill="none" stroke="black" d="M352,-1354.96C352,-1346.83 352,-1336.79 352,-1327.01"/>
<polygon fill="black" stroke="black" points="354.45,-1327.05 352,-1320.05 349.55,-1327.05 354.45,-1327.05"/>
</g>
<!-- r_query -->
<g id="node8" class="node">
<title>r_query</title>
<polygon fill="none" stroke="black" points="368,-1211.51 214,-1211.51 214,-1169.76 368,-1169.76 368,-1211.51"/>
<text text-anchor="middle" x="291" y="-1198.01" font-family="Helvetica,sans-Serif" font-size="10.00">query:search candidates</text>
<text text-anchor="middle" x="291" y="-1186.76" font-family="Helvetica,sans-Serif" font-size="10.00">(name/category/keyword + slot)</text>
<text text-anchor="middle" x="291" y="-1175.51" font-family="Helvetica,sans-Serif" font-size="10.00">(+ installed(true) if self&#45;hosting)</text>
</g>
<!-- r_self_hosting&#45;&gt;r_query -->
<g id="edge7" class="edge">
<title>r_self_hosting&#45;&gt;r_query</title>
<path fill="none" stroke="black" d="M291.65,-1267.04C279.47,-1260.2 268.2,-1251.15 261,-1239.26 256.9,-1232.49 258.39,-1225.24 262.36,-1218.48"/>
<polygon fill="black" stroke="black" points="264.08,-1220.29 266.15,-1213.17 260.09,-1217.44 264.08,-1220.29"/>
<text text-anchor="middle" x="298.5" y="-1230.71" font-family="Helvetica,sans-Serif" font-size="9.00">yes: installed(true)</text>
</g>
<!-- r_self_hosting&#45;&gt;r_query -->
<g id="edge8" class="edge">
<title>r_self_hosting&#45;&gt;r_query</title>
<path fill="none" stroke="black" d="M347.42,-1257.68C345.03,-1248.19 341.42,-1237.93 336,-1229.51 333.24,-1225.23 329.85,-1221.18 326.18,-1217.43"/>
<polygon fill="black" stroke="black" points="328.1,-1215.87 321.33,-1212.84 324.73,-1219.43 328.1,-1215.87"/>
<text text-anchor="middle" x="345.87" y="-1230.71" font-family="Helvetica,sans-Serif" font-size="9.00">no</text>
</g>
<!-- r_reject_self -->
<g id="node9" class="node">
<title>r_reject_self</title>
<polygon fill="none" stroke="black" points="120,-1121.14 16.24,-1103.14 120,-1085.14 223.76,-1103.14 120,-1121.14"/>
<text text-anchor="middle" x="120" y="-1099.26" font-family="Helvetica,sans-Serif" font-size="10.00">Candidate == SelfEntry?</text>
</g>
<!-- r_query&#45;&gt;r_reject_self -->
<g id="edge9" class="edge">
<title>r_query&#45;&gt;r_reject_self</title>
<path fill="none" stroke="black" d="M250.48,-1169.37C220.86,-1154.57 181.19,-1134.73 153.4,-1120.83"/>
<polygon fill="black" stroke="black" points="154.6,-1118.7 147.24,-1117.76 152.41,-1123.08 154.6,-1118.7"/>
</g>
<!-- r_fallback -->
<g id="node15" class="node">
<title>r_fallback</title>
<polygon fill="none" stroke="black" points="542.25,-1124.01 341.75,-1124.01 341.75,-1082.26 542.25,-1082.26 542.25,-1124.01"/>
<text text-anchor="middle" x="442" y="-1110.51" font-family="Helvetica,sans-Serif" font-size="10.00">No candidate found &#45;&gt;</text>
<text text-anchor="middle" x="442" y="-1099.26" font-family="Helvetica,sans-Serif" font-size="10.00">assumed(grouped_package_dependency...</text>
<text text-anchor="middle" x="442" y="-1088.01" font-family="Helvetica,sans-Serif" font-size="10.00">+ assumption_reason(...))</text>
</g>
<!-- r_query&#45;&gt;r_fallback -->
<g id="edge18" class="edge">
<title>r_query&#45;&gt;r_fallback</title>
<path fill="none" stroke="black" stroke-dasharray="5,2" d="M326.78,-1169.37C348.43,-1157.12 376.15,-1141.42 398.98,-1128.49"/>
<polygon fill="black" stroke="black" points="400.01,-1130.73 404.89,-1125.15 397.6,-1126.46 400.01,-1130.73"/>
<text text-anchor="middle" x="411.53" y="-1143.21" font-family="Helvetica,sans-Serif" font-size="9.00">no more candidates</text>
</g>
<!-- r_reject_self2 -->
<g id="node10" class="node">
<title>r_reject_self2</title>
<polygon fill="none" stroke="black" points="198,-1013.26 91.73,-995.26 198,-977.26 304.27,-995.26 198,-1013.26"/>
<text text-anchor="middle" x="198" y="-991.38" font-family="Helvetica,sans-Serif" font-size="10.00">Candidate installed(true)?</text>
</g>
<!-- r_reject_self&#45;&gt;r_reject_self2 -->
<g id="edge10" class="edge">
<title>r_reject_self&#45;&gt;r_reject_self2</title>
<path fill="none" stroke="black" d="M131.18,-1086.97C144.36,-1069.06 166.41,-1039.14 181.55,-1018.58"/>
<polygon fill="black" stroke="black" points="183.51,-1020.05 185.69,-1012.96 179.57,-1017.14 183.51,-1020.05"/>
<text text-anchor="middle" x="161.45" y="-1055.71" font-family="Helvetica,sans-Serif" font-size="9.00">yes</text>
</g>
<!-- r_versions -->
<g id="node11" class="node">
<title>r_versions</title>
<polygon fill="none" stroke="black" points="198,-928.5 35.75,-898 198,-867.5 360.25,-898 198,-928.5"/>
<text text-anchor="middle" x="198" y="-899.75" font-family="Helvetica,sans-Serif" font-size="10.00">forall version constraints</text>
<text text-anchor="middle" x="198" y="-888.5" font-family="Helvetica,sans-Serif" font-size="10.00">query:search(select(version,O,V))</text>
</g>
<!-- r_reject_self&#45;&gt;r_versions -->
<g id="edge11" class="edge">
<title>r_reject_self&#45;&gt;r_versions</title>
<path fill="none" stroke="black" d="M102.89,-1088.06C91.89,-1077.83 78.56,-1062.95 72.5,-1046.51 61.39,-1016.38 56.67,-1002.19 72.5,-974.25 85.89,-950.61 109.99,-933.59 133.51,-921.79"/>
<polygon fill="black" stroke="black" points="134.5,-924.03 139.75,-918.79 132.38,-919.61 134.5,-924.03"/>
<text text-anchor="middle" x="77.75" y="-991.58" font-family="Helvetica,sans-Serif" font-size="9.00">no</text>
</g>
<!-- r_reject_self2&#45;&gt;r_query -->
<g id="edge13" class="edge">
<title>r_reject_self2&#45;&gt;r_query</title>
<path fill="none" stroke="black" d="M205.78,-1012.43C221.65,-1045.42 257.9,-1120.82 277.63,-1161.83"/>
<polygon fill="black" stroke="black" points="275.33,-1162.7 280.57,-1167.94 279.74,-1160.57 275.33,-1162.7"/>
<text text-anchor="middle" x="280.39" y="-1099.46" font-family="Helvetica,sans-Serif" font-size="9.00">no: try next</text>
</g>
<!-- r_reject_self2&#45;&gt;r_versions -->
<g id="edge12" class="edge">
<title>r_reject_self2&#45;&gt;r_versions</title>
<path fill="none" stroke="black" d="M198,-976.78C198,-965.66 198,-950.82 198,-937.08"/>
<polygon fill="black" stroke="black" points="200.45,-937.22 198,-930.22 195.55,-937.22 200.45,-937.22"/>
<text text-anchor="middle" x="205.12" y="-947.7" font-family="Helvetica,sans-Serif" font-size="9.00">yes</text>
</g>
<!-- r_versions&#45;&gt;r_query -->
<g id="edge15" class="edge">
<title>r_versions&#45;&gt;r_query</title>
<path fill="none" stroke="black" d="M249.95,-919.13C273.7,-931.26 299.5,-949.27 313,-974.25 345.67,-1034.67 320.49,-1118.57 303.41,-1161.65"/>
<polygon fill="black" stroke="black" points="301.17,-1160.64 300.79,-1168.05 305.71,-1162.49 301.17,-1160.64"/>
<text text-anchor="middle" x="350.69" y="-1055.71" font-family="Helvetica,sans-Serif" font-size="9.00">no: try next</text>
</g>
<!-- r_build_use -->
<g id="node12" class="node">
<title>r_build_use</title>
<polygon fill="none" stroke="black" points="265.62,-809.25 130.38,-809.25 130.38,-773.25 265.62,-773.25 265.62,-809.25"/>
<text text-anchor="middle" x="198" y="-793" font-family="Helvetica,sans-Serif" font-size="10.00">process_build_with_use(...)</text>
<text text-anchor="middle" x="198" y="-781.75" font-family="Helvetica,sans-Serif" font-size="10.00">(add Constraints + context)</text>
</g>
<!-- r_versions&#45;&gt;r_build_use -->
<g id="edge14" class="edge">
<title>r_versions&#45;&gt;r_build_use</title>
<path fill="none" stroke="black" d="M198,-867.26C198,-851.69 198,-832.81 198,-817.89"/>
<polygon fill="black" stroke="black" points="200.45,-818.13 198,-811.13 195.55,-818.13 200.45,-818.13"/>
<text text-anchor="middle" x="205.12" y="-840.95" font-family="Helvetica,sans-Serif" font-size="9.00">yes</text>
</g>
<!-- r_process_slot -->
<g id="node13" class="node">
<title>r_process_slot</title>
<polygon fill="none" stroke="black" points="254.38,-702.5 141.62,-702.5 141.62,-666.5 254.38,-666.5 254.38,-702.5"/>
<text text-anchor="middle" x="198" y="-686.25" font-family="Helvetica,sans-Serif" font-size="10.00">process_slot(...)</text>
<text text-anchor="middle" x="198" y="-675" font-family="Helvetica,sans-Serif" font-size="10.00">(annotate chosen slot)</text>
</g>
<!-- r_build_use&#45;&gt;r_process_slot -->
<g id="edge16" class="edge">
<title>r_build_use&#45;&gt;r_process_slot</title>
<path fill="none" stroke="black" d="M198,-772.95C198,-756.12 198,-730.35 198,-711.13"/>
<polygon fill="black" stroke="black" points="200.45,-711.34 198,-704.34 195.55,-711.34 200.45,-711.34"/>
</g>
<!-- r_success -->
<g id="node14" class="node">
<title>r_success</title>
<polygon fill="none" stroke="black" points="267.88,-595.75 128.12,-595.75 128.12,-559.75 267.88,-559.75 267.88,-595.75"/>
<text text-anchor="middle" x="198" y="-579.5" font-family="Helvetica,sans-Serif" font-size="10.00">Conditions = Constraints ++</text>
<text text-anchor="middle" x="198" y="-568.25" font-family="Helvetica,sans-Serif" font-size="10.00">[Candidate:Action?{Ctx}]</text>
</g>
<!-- r_process_slot&#45;&gt;r_success -->
<g id="edge17" class="edge">
<title>r_process_slot&#45;&gt;r_success</title>
<path fill="none" stroke="black" d="M198,-666.2C198,-649.37 198,-623.6 198,-604.38"/>
<polygon fill="black" stroke="black" points="200.45,-604.59 198,-597.59 195.55,-604.59 200.45,-604.59"/>
</g>
<!-- e_start -->
<g id="node16" class="node">
<title>e_start</title>
<ellipse fill="none" stroke="black" cx="630" cy="-995.26" rx="21.01" ry="21.01"/>
<text text-anchor="middle" x="630" y="-991.38" font-family="Helvetica,sans-Serif" font-size="10.00">start</text>
</g>
<!-- r_fallback&#45;&gt;e_start -->
<g id="edge19" class="edge">
<title>r_fallback&#45;&gt;e_start</title>
<path fill="none" stroke="black" stroke-dasharray="5,2" d="M486,-1081.83C506.92,-1071.79 532.08,-1059.14 554,-1046.51 572.02,-1036.13 591.58,-1023.15 606.34,-1012.99"/>
<polygon fill="black" stroke="black" points="607.58,-1015.11 611.93,-1009.11 604.78,-1011.09 607.58,-1015.11"/>
<text text-anchor="middle" x="573.66" y="-1055.71" font-family="Helvetica,sans-Serif" font-size="9.00">diagnose reason</text>
</g>
<!-- e_any -->
<g id="node17" class="node">
<title>e_any</title>
<polygon fill="none" stroke="black" points="674,-928.5 566.5,-898 674,-867.5 781.5,-898 674,-928.5"/>
<text text-anchor="middle" x="674" y="-899.75" font-family="Helvetica,sans-Serif" font-size="10.00">Any package exists?</text>
<text text-anchor="middle" x="674" y="-888.5" font-family="Helvetica,sans-Serif" font-size="10.00">(category+name)</text>
</g>
<!-- e_start&#45;&gt;e_any -->
<g id="edge20" class="edge">
<title>e_start&#45;&gt;e_any</title>
<path fill="none" stroke="black" d="M638.48,-975.89C644.14,-963.64 651.74,-947.18 658.46,-932.63"/>
<polygon fill="black" stroke="black" points="660.54,-933.99 661.25,-926.61 656.09,-931.94 660.54,-933.99"/>
</g>
<!-- e_missing -->
<g id="node18" class="node">
<title>e_missing</title>
<polygon fill="none" stroke="black" points="670.75,-809.25 575.25,-809.25 575.25,-773.25 670.75,-773.25 670.75,-809.25"/>
<text text-anchor="middle" x="623" y="-787.38" font-family="Helvetica,sans-Serif" font-size="10.00">Reason = missing</text>
</g>
<!-- e_any&#45;&gt;e_missing -->
<g id="edge21" class="edge">
<title>e_any&#45;&gt;e_missing</title>
<path fill="none" stroke="black" d="M661.26,-870.84C653.25,-854.38 642.97,-833.27 635.09,-817.08"/>
<polygon fill="black" stroke="black" points="637.36,-816.15 632.09,-810.92 632.95,-818.29 637.36,-816.15"/>
<text text-anchor="middle" x="655.28" y="-840.95" font-family="Helvetica,sans-Serif" font-size="9.00">no</text>
</g>
<!-- e_need_inst -->
<g id="node19" class="node">
<title>e_need_inst</title>
<polygon fill="none" stroke="black" points="794,-821.75 688.75,-791.25 794,-760.75 899.25,-791.25 794,-821.75"/>
<text text-anchor="middle" x="794" y="-793" font-family="Helvetica,sans-Serif" font-size="10.00">Self&#45;hosting requires</text>
<text text-anchor="middle" x="794" y="-781.75" font-family="Helvetica,sans-Serif" font-size="10.00">installed&#45;only?</text>
</g>
<!-- e_any&#45;&gt;e_need_inst -->
<g id="edge22" class="edge">
<title>e_any&#45;&gt;e_need_inst</title>
<path fill="none" stroke="black" d="M699.74,-874.53C717.93,-858.65 742.44,-837.26 761.91,-820.26"/>
<polygon fill="black" stroke="black" points="763.5,-822.13 767.16,-815.68 760.27,-818.44 763.5,-822.13"/>
<text text-anchor="middle" x="744.72" y="-840.95" font-family="Helvetica,sans-Serif" font-size="9.00">yes</text>
</g>
<!-- e_inst_empty -->
<g id="node20" class="node">
<title>e_inst_empty</title>
<polygon fill="none" stroke="black" points="693,-715 619.25,-684.5 693,-654 766.75,-684.5 693,-715"/>
<text text-anchor="middle" x="693" y="-686.25" font-family="Helvetica,sans-Serif" font-size="10.00">Installed&#45;only</text>
<text text-anchor="middle" x="693" y="-675" font-family="Helvetica,sans-Serif" font-size="10.00">set empty?</text>
</g>
<!-- e_need_inst&#45;&gt;e_inst_empty -->
<g id="edge23" class="edge">
<title>e_need_inst&#45;&gt;e_inst_empty</title>
<path fill="none" stroke="black" d="M771.58,-767C756.16,-751.01 735.61,-729.69 719.39,-712.87"/>
<polygon fill="black" stroke="black" points="721.31,-711.33 714.68,-707.99 717.78,-714.73 721.31,-711.33"/>
<text text-anchor="middle" x="753.65" y="-734.2" font-family="Helvetica,sans-Serif" font-size="9.00">yes</text>
</g>
<!-- e_unmasked1 -->
<g id="node22" class="node">
<title>e_unmasked1</title>
<polygon fill="none" stroke="black" points="803,-608.25 721.75,-577.75 803,-547.25 884.25,-577.75 803,-608.25"/>
<text text-anchor="middle" x="803" y="-579.5" font-family="Helvetica,sans-Serif" font-size="10.00">Any unmasked</text>
<text text-anchor="middle" x="803" y="-568.25" font-family="Helvetica,sans-Serif" font-size="10.00">candidates?</text>
</g>
<!-- e_need_inst&#45;&gt;e_unmasked1 -->
<g id="edge24" class="edge">
<title>e_need_inst&#45;&gt;e_unmasked1</title>
<path fill="none" stroke="black" d="M795.25,-760.84C796.85,-723.22 799.63,-658.01 801.39,-616.69"/>
<polygon fill="black" stroke="black" points="803.83,-616.86 801.68,-609.76 798.93,-616.65 803.83,-616.86"/>
<text text-anchor="middle" x="804.94" y="-680.83" font-family="Helvetica,sans-Serif" font-size="9.00">no</text>
</g>
<!-- e_inst_req -->
<g id="node21" class="node">
<title>e_inst_req</title>
<polygon fill="none" stroke="black" points="703.75,-595.75 566.25,-595.75 566.25,-559.75 703.75,-559.75 703.75,-595.75"/>
<text text-anchor="middle" x="635" y="-573.88" font-family="Helvetica,sans-Serif" font-size="10.00">Reason = installed_required</text>
</g>
<!-- e_inst_empty&#45;&gt;e_inst_req -->
<g id="edge25" class="edge">
<title>e_inst_empty&#45;&gt;e_inst_req</title>
<path fill="none" stroke="black" d="M679.55,-659.2C670.26,-642.43 657.96,-620.21 648.63,-603.37"/>
<polygon fill="black" stroke="black" points="650.84,-602.31 645.31,-597.37 646.56,-604.68 650.84,-602.31"/>
<text text-anchor="middle" x="672.86" y="-627.45" font-family="Helvetica,sans-Serif" font-size="9.00">yes</text>
</g>
<!-- e_inst_empty&#45;&gt;e_unmasked1 -->
<g id="edge26" class="edge">
<title>e_inst_empty&#45;&gt;e_unmasked1</title>
<path fill="none" stroke="black" d="M714.73,-662.8C731.83,-646.52 755.81,-623.69 774.46,-605.93"/>
<polygon fill="black" stroke="black" points="776.08,-607.77 779.46,-601.17 772.7,-604.22 776.08,-607.77"/>
<text text-anchor="middle" x="756.55" y="-627.45" font-family="Helvetica,sans-Serif" font-size="9.00">no</text>
</g>
<!-- e_masked -->
<g id="node23" class="node">
<title>e_masked</title>
<polygon fill="none" stroke="black" points="693.12,-264.25 596.88,-264.25 596.88,-228.25 693.12,-228.25 693.12,-264.25"/>
<text text-anchor="middle" x="645" y="-242.38" font-family="Helvetica,sans-Serif" font-size="10.00">Reason = masked</text>
</g>
<!-- e_unmasked1&#45;&gt;e_masked -->
<g id="edge27" class="edge">
<title>e_unmasked1&#45;&gt;e_masked</title>
<path fill="none" stroke="black" d="M765.76,-560.8C740.27,-548.14 707.5,-528.13 687,-501.5 634.09,-432.78 637.23,-322.34 641.87,-272.77"/>
<polygon fill="black" stroke="black" points="644.29,-273.24 642.56,-266.03 639.41,-272.74 644.29,-273.24"/>
<text text-anchor="middle" x="655.88" y="-413.95" font-family="Helvetica,sans-Serif" font-size="9.00">no</text>
</g>
<!-- e_slot_any -->
<g id="node24" class="node">
<title>e_slot_any</title>
<polygon fill="none" stroke="black" points="803,-501.5 695.5,-471 803,-440.5 910.5,-471 803,-501.5"/>
<text text-anchor="middle" x="803" y="-472.75" font-family="Helvetica,sans-Serif" font-size="10.00">Slot constraint yields</text>
<text text-anchor="middle" x="803" y="-461.5" font-family="Helvetica,sans-Serif" font-size="10.00">any candidates?</text>
</g>
<!-- e_unmasked1&#45;&gt;e_slot_any -->
<g id="edge28" class="edge">
<title>e_unmasked1&#45;&gt;e_slot_any</title>
<path fill="none" stroke="black" d="M803,-546.73C803,-535.24 803,-521.98 803,-509.84"/>
<polygon fill="black" stroke="black" points="805.45,-510.17 803,-503.17 800.55,-510.17 805.45,-510.17"/>
<text text-anchor="middle" x="810.12" y="-520.7" font-family="Helvetica,sans-Serif" font-size="9.00">yes</text>
</g>
<!-- e_slot_bad -->
<g id="node25" class="node">
<title>e_slot_bad</title>
<polygon fill="none" stroke="black" points="791,-382.25 661,-382.25 661,-346.25 791,-346.25 791,-382.25"/>
<text text-anchor="middle" x="726" y="-360.38" font-family="Helvetica,sans-Serif" font-size="10.00">Reason = slot_unsatisfied</text>
</g>
<!-- e_slot_any&#45;&gt;e_slot_bad -->
<g id="edge29" class="edge">
<title>e_slot_any&#45;&gt;e_slot_bad</title>
<path fill="none" stroke="black" d="M784.75,-445.18C772.38,-428.34 756.1,-406.2 743.82,-389.49"/>
<polygon fill="black" stroke="black" points="745.84,-388.1 739.72,-383.91 741.89,-391 745.84,-388.1"/>
<text text-anchor="middle" x="772.06" y="-413.95" font-family="Helvetica,sans-Serif" font-size="9.00">no</text>
</g>
<!-- e_unmasked2 -->
<g id="node26" class="node">
<title>e_unmasked2</title>
<polygon fill="none" stroke="black" points="896,-394.75 808.75,-364.25 896,-333.75 983.25,-364.25 896,-394.75"/>
<text text-anchor="middle" x="896" y="-366" font-family="Helvetica,sans-Serif" font-size="10.00">Any unmasked</text>
<text text-anchor="middle" x="896" y="-354.75" font-family="Helvetica,sans-Serif" font-size="10.00">slot candidates?</text>
</g>
<!-- e_slot_any&#45;&gt;e_unmasked2 -->
<g id="edge30" class="edge">
<title>e_slot_any&#45;&gt;e_unmasked2</title>
<path fill="none" stroke="black" d="M824.1,-446.23C837.82,-430.78 855.8,-410.53 870.34,-394.15"/>
<polygon fill="black" stroke="black" points="872.12,-395.84 874.93,-388.98 868.45,-392.59 872.12,-395.84"/>
<text text-anchor="middle" x="859.41" y="-413.95" font-family="Helvetica,sans-Serif" font-size="9.00">yes</text>
</g>
<!-- e_unmasked2&#45;&gt;e_masked -->
<g id="edge31" class="edge">
<title>e_unmasked2&#45;&gt;e_masked</title>
<path fill="none" stroke="black" d="M852.67,-348.39C814.11,-334.57 756.62,-312.48 709,-288 698.25,-282.48 686.99,-275.68 676.96,-269.23"/>
<polygon fill="black" stroke="black" points="678.37,-267.22 671.17,-265.45 675.69,-271.33 678.37,-267.22"/>
<text text-anchor="middle" x="769.41" y="-307.2" font-family="Helvetica,sans-Serif" font-size="9.00">no</text>
</g>
<!-- e_versions -->
<g id="node27" class="node">
<title>e_versions</title>
<polygon fill="none" stroke="black" points="882,-288 717.5,-246.25 882,-204.5 1046.5,-246.25 882,-288"/>
<text text-anchor="middle" x="882" y="-253.62" font-family="Helvetica,sans-Serif" font-size="10.00">Version constraints analysis</text>
<text text-anchor="middle" x="882" y="-242.38" font-family="Helvetica,sans-Serif" font-size="10.00">&#45; no candidate for some constraint</text>
<text text-anchor="middle" x="882" y="-231.12" font-family="Helvetica,sans-Serif" font-size="10.00">&#45; or conflict</text>
</g>
<!-- e_unmasked2&#45;&gt;e_versions -->
<g id="edge32" class="edge">
<title>e_unmasked2&#45;&gt;e_versions</title>
<path fill="none" stroke="black" d="M892.54,-334.58C891.1,-322.69 889.4,-308.56 887.78,-295.18"/>
<polygon fill="black" stroke="black" points="890.25,-295.13 886.98,-288.47 885.38,-295.72 890.25,-295.13"/>
<text text-anchor="middle" x="897.38" y="-307.2" font-family="Helvetica,sans-Serif" font-size="9.00">yes</text>
</g>
<!-- e_ver_nocand -->
<g id="node28" class="node">
<title>e_ver_nocand</title>
<polygon fill="none" stroke="black" points="759.5,-146.25 566.5,-146.25 566.5,-110.25 759.5,-110.25 759.5,-146.25"/>
<text text-anchor="middle" x="663" y="-124.38" font-family="Helvetica,sans-Serif" font-size="10.00">Reason = version_no_candidate(Op,Ver)</text>
</g>
<!-- e_versions&#45;&gt;e_ver_nocand -->
<g id="edge33" class="edge">
<title>e_versions&#45;&gt;e_ver_nocand</title>
<path fill="none" stroke="black" d="M829.54,-217.47C790.79,-196.94 738.82,-169.41 703.31,-150.6"/>
<polygon fill="black" stroke="black" points="704.66,-148.54 697.32,-147.43 702.36,-152.87 704.66,-148.54"/>
<text text-anchor="middle" x="792.93" y="-177.95" font-family="Helvetica,sans-Serif" font-size="9.00">no&#45;candidate</text>
</g>
<!-- e_ver_conflict -->
<g id="node29" class="node">
<title>e_ver_conflict</title>
<polygon fill="none" stroke="black" points="908,-146.25 778,-146.25 778,-110.25 908,-110.25 908,-146.25"/>
<text text-anchor="middle" x="843" y="-124.38" font-family="Helvetica,sans-Serif" font-size="10.00">Reason = version_conflict</text>
</g>
<!-- e_versions&#45;&gt;e_ver_conflict -->
<g id="edge34" class="edge">
<title>e_versions&#45;&gt;e_ver_conflict</title>
<path fill="none" stroke="black" d="M869.23,-207.27C863.42,-189.98 856.7,-170 851.52,-154.58"/>
<polygon fill="black" stroke="black" points="853.85,-153.82 849.29,-147.97 849.2,-155.38 853.85,-153.82"/>
<text text-anchor="middle" x="875.58" y="-177.95" font-family="Helvetica,sans-Serif" font-size="9.00">conflict</text>
</g>
<!-- e_keywords -->
<g id="node30" class="node">
<title>e_keywords</title>
<polygon fill="none" stroke="black" points="1053,-158.75 926,-128.25 1053,-97.75 1180,-128.25 1053,-158.75"/>
<text text-anchor="middle" x="1053" y="-130" font-family="Helvetica,sans-Serif" font-size="10.00">Any candidate matches</text>
<text text-anchor="middle" x="1053" y="-118.75" font-family="Helvetica,sans-Serif" font-size="10.00">ACCEPT_KEYWORDS?</text>
</g>
<!-- e_versions&#45;&gt;e_keywords -->
<g id="edge35" class="edge">
<title>e_versions&#45;&gt;e_keywords</title>
<path fill="none" stroke="black" d="M926.04,-215.38C953.11,-197.01 987.49,-173.69 1013.65,-155.94"/>
<polygon fill="black" stroke="black" points="1014.79,-158.13 1019.2,-152.18 1012.03,-154.08 1014.79,-158.13"/>
<text text-anchor="middle" x="1013.94" y="-177.95" font-family="Helvetica,sans-Serif" font-size="9.00">has candidates</text>
</g>
<!-- e_kw -->
<g id="node31" class="node">
<title>e_kw</title>
<polygon fill="none" stroke="black" points="984.5,-52 851.5,-52 851.5,-16 984.5,-16 984.5,-52"/>
<text text-anchor="middle" x="918" y="-30.12" font-family="Helvetica,sans-Serif" font-size="10.00">Reason = keyword_filtered</text>
</g>
<!-- e_keywords&#45;&gt;e_kw -->
<g id="edge36" class="edge">
<title>e_keywords&#45;&gt;e_kw</title>
<path fill="none" stroke="black" d="M1020.66,-105.15C999.36,-90.6 971.57,-71.61 950.28,-57.06"/>
<polygon fill="black" stroke="black" points="951.73,-55.08 944.57,-53.16 948.97,-59.13 951.73,-55.08"/>
<text text-anchor="middle" x="986.7" y="-71.2" font-family="Helvetica,sans-Serif" font-size="9.00">no</text>
</g>
<!-- e_other -->
<g id="node32" class="node">
<title>e_other</title>
<polygon fill="none" stroke="black" points="1165.12,-52 1002.88,-52 1002.88,-16 1165.12,-16 1165.12,-52"/>
<text text-anchor="middle" x="1084" y="-30.12" font-family="Helvetica,sans-Serif" font-size="10.00">Reason = unsatisfied_constraints</text>
</g>
<!-- e_keywords&#45;&gt;e_other -->
<g id="edge37" class="edge">
<title>e_keywords&#45;&gt;e_other</title>
<path fill="none" stroke="black" d="M1062.3,-99.57C1066.47,-87.15 1071.37,-72.6 1075.45,-60.45"/>
<polygon fill="black" stroke="black" points="1077.73,-61.34 1077.64,-53.92 1073.09,-59.78 1077.73,-61.34"/>
<text text-anchor="middle" x="1127.69" y="-71.2" font-family="Helvetica,sans-Serif" font-size="9.00">yes (but resolver still failed)</text>
</g>
</g>
</svg>
